# xmcd CD database file
#
# Track frame offsets:
#	150
#	19199
#	34964
#	50353
#	62351
#	86317
#	104451
#	119407
#	140734
#	164299
#	185428
#	195862
#
# Disc length: 2746 seconds
#
# Revision: 2
# Processed by: cddbd v1.5.2PL0 Copyright (c) Steve Scherf et al.
# Submitted via: NeoAudio 9.9.9
#
DISCID=9a0ab80c
DTITLE=Joe Cocker - With A Little Help From My Friends
DYEAR=1969
DGENRE=Blues
TTITLE0=Feeling Alright
TTITLE1=Bye Bye Blackbird
TTITLE2=Change In Louise
TTITLE3=Marjorine
TTITLE4=Just Like A Woman
TTITLE5=Do I Still Figure In Your Life?
TTITLE6=Sandpaper Cadillac
TTITLE7=Don't Let Me Be Misunderstood
TTITLE8=With A Little Help From My Friends
TTITLE9=I Shall Be Released
TTITLE10=The New Age Of Lily
TTITLE11=Something's Coming On
EXTD=Digitally Remastered YEAR: 1969
EXTT0=
EXTT1=
EXTT2=
EXTT3=
EXTT4=
EXTT5=
EXTT6=
EXTT7=
EXTT8=
EXTT9=
EXTT10=
EXTT11=
PLAYORDER=
